<mxfile host="drawio.corp.amazon.com" modified="2024-02-18T20:32:36.772Z" agent="Mozilla/5.0 (Macintosh; Intel Mac OS X 10.15; rv:109.0) Gecko/20100101 Firefox/115.0" etag="dpv5JdFmOB0HZKu3Ouv6" version="21.7.4" type="device">
  <diagram name="Page-1" id="7JHxIqzVTEzUt86KuqMs">
    <mxGraphModel dx="1192" dy="1798" grid="1" gridSize="10" guides="1" tooltips="1" connect="1" arrows="1" fold="1" page="1" pageScale="1" pageWidth="850" pageHeight="1100" math="0" shadow="0">
      <root>
        <mxCell id="0" />
        <mxCell id="1" parent="0" />
        <mxCell id="m2AHcmCJdf_8LvcoW3n0-3" value="" style="strokeWidth=2;html=1;shape=mxgraph.flowchart.document2;whiteSpace=wrap;size=0.25;fillColor=#e1d5e7;strokeColor=#9673a6;" parent="1" vertex="1">
          <mxGeometry x="100" y="170" width="100" height="60" as="geometry" />
        </mxCell>
        <mxCell id="m2AHcmCJdf_8LvcoW3n0-4" value="&lt;font style=&quot;font-size: 15px;&quot;&gt;Header Data&lt;/font&gt;" style="text;html=1;align=center;verticalAlign=middle;resizable=0;points=[];autosize=1;strokeColor=none;fillColor=none;" parent="1" vertex="1">
          <mxGeometry x="95" y="240" width="110" height="30" as="geometry" />
        </mxCell>
        <mxCell id="m2AHcmCJdf_8LvcoW3n0-5" value="" style="shape=flexArrow;endArrow=classic;html=1;rounded=0;width=32;endSize=9.33;" parent="1" edge="1">
          <mxGeometry width="50" height="50" relative="1" as="geometry">
            <mxPoint x="210" y="200" as="sourcePoint" />
            <mxPoint x="320" y="199.5" as="targetPoint" />
          </mxGeometry>
        </mxCell>
        <mxCell id="m2AHcmCJdf_8LvcoW3n0-6" value="&lt;font style=&quot;font-size: 15px;&quot;&gt;Hash&lt;/font&gt;" style="edgeLabel;html=1;align=center;verticalAlign=middle;resizable=0;points=[];" parent="m2AHcmCJdf_8LvcoW3n0-5" vertex="1" connectable="0">
          <mxGeometry x="-0.4857" relative="1" as="geometry">
            <mxPoint x="12" y="1" as="offset" />
          </mxGeometry>
        </mxCell>
        <mxCell id="m2AHcmCJdf_8LvcoW3n0-7" value="&lt;font style=&quot;font-size: 14px;&quot;&gt;jl957D9ajY2oX4tYsohU&lt;/font&gt;" style="rounded=0;whiteSpace=wrap;html=1;fillColor=#e1d5e7;strokeColor=#9673a6;" parent="1" vertex="1">
          <mxGeometry x="335" y="180" width="180" height="40" as="geometry" />
        </mxCell>
        <mxCell id="m2AHcmCJdf_8LvcoW3n0-8" value="&lt;font style=&quot;font-size: 14px;&quot;&gt;Digest Value&lt;/font&gt;" style="text;html=1;align=center;verticalAlign=middle;resizable=0;points=[];autosize=1;strokeColor=none;fillColor=none;" parent="1" vertex="1">
          <mxGeometry x="375" y="220" width="100" height="30" as="geometry" />
        </mxCell>
        <mxCell id="m2AHcmCJdf_8LvcoW3n0-9" value="" style="points=[[0.015,0.015,0],[0.25,0,0],[0.5,0,0],[0.75,0,0],[0.985,0.015,0],[1,0.22,0],[1,0.44,0],[1,0.67,0],[0.985,0.89,0],[0,0.22,0],[0,0.44,0],[0,0.67,0],[0.015,0.89,0],[0.25,0.91,0],[0.5,0.91,0],[0.785,0.955,0]];verticalLabelPosition=bottom;sketch=0;html=1;verticalAlign=top;aspect=fixed;align=center;pointerEvents=1;shape=mxgraph.cisco19.x509_certificate;fillColor=#005073;strokeColor=none;" parent="1" vertex="1">
          <mxGeometry x="140" y="465" width="90" height="85.5" as="geometry" />
        </mxCell>
        <mxCell id="m2AHcmCJdf_8LvcoW3n0-10" value="&lt;font style=&quot;font-size: 14px;&quot;&gt;Client Certificate&lt;/font&gt;" style="text;html=1;align=center;verticalAlign=middle;resizable=0;points=[];autosize=1;strokeColor=none;fillColor=none;" parent="1" vertex="1">
          <mxGeometry x="120" y="550" width="130" height="30" as="geometry" />
        </mxCell>
        <mxCell id="m2AHcmCJdf_8LvcoW3n0-21" value="&lt;font style=&quot;font-size: 13px;&quot;&gt;Encrypt Digest value with private key&lt;/font&gt;" style="rounded=0;whiteSpace=wrap;html=1;fillColor=#e1d5e7;strokeColor=#9673a6;" parent="1" vertex="1">
          <mxGeometry x="360" y="300" width="155" height="80" as="geometry" />
        </mxCell>
        <mxCell id="m2AHcmCJdf_8LvcoW3n0-22" value="" style="endArrow=classic;html=1;rounded=0;entryX=0.426;entryY=-0.012;entryDx=0;entryDy=0;entryPerimeter=0;" parent="1" target="m2AHcmCJdf_8LvcoW3n0-21" edge="1">
          <mxGeometry width="50" height="50" relative="1" as="geometry">
            <mxPoint x="426" y="250" as="sourcePoint" />
            <mxPoint x="500" y="160" as="targetPoint" />
          </mxGeometry>
        </mxCell>
        <mxCell id="m2AHcmCJdf_8LvcoW3n0-23" value="" style="shadow=0;dashed=0;html=1;strokeColor=none;fillColor=#4495D1;labelPosition=center;verticalLabelPosition=bottom;verticalAlign=top;align=center;outlineConnect=0;shape=mxgraph.veeam.2d.private_key;" parent="1" vertex="1">
          <mxGeometry x="350" y="340" width="55.6" height="50.8" as="geometry" />
        </mxCell>
        <mxCell id="m2AHcmCJdf_8LvcoW3n0-24" value="" style="endArrow=classic;html=1;rounded=0;exitX=0.433;exitY=-0.047;exitDx=0;exitDy=0;exitPerimeter=0;" parent="1" source="m2AHcmCJdf_8LvcoW3n0-9" target="m2AHcmCJdf_8LvcoW3n0-23" edge="1">
          <mxGeometry width="50" height="50" relative="1" as="geometry">
            <mxPoint x="230" y="360" as="sourcePoint" />
            <mxPoint x="280" y="310" as="targetPoint" />
            <Array as="points">
              <mxPoint x="180" y="365" />
            </Array>
          </mxGeometry>
        </mxCell>
        <mxCell id="m2AHcmCJdf_8LvcoW3n0-25" value="" style="endArrow=classic;html=1;rounded=0;exitX=0.5;exitY=1;exitDx=0;exitDy=0;" parent="1" source="m2AHcmCJdf_8LvcoW3n0-21" edge="1">
          <mxGeometry width="50" height="50" relative="1" as="geometry">
            <mxPoint x="440" y="520" as="sourcePoint" />
            <mxPoint x="438" y="450" as="targetPoint" />
          </mxGeometry>
        </mxCell>
        <mxCell id="m2AHcmCJdf_8LvcoW3n0-26" value="&lt;font style=&quot;font-size: 14px;&quot;&gt;Signed Signature&lt;/font&gt;" style="rounded=0;whiteSpace=wrap;html=1;fillColor=#e1d5e7;strokeColor=#9673a6;" parent="1" vertex="1">
          <mxGeometry x="360" y="430" width="160" height="60" as="geometry" />
        </mxCell>
        <mxCell id="m2AHcmCJdf_8LvcoW3n0-31" value="&lt;font style=&quot;font-size: 14px;&quot;&gt;Certificate(With Public key) + Signed Signature&lt;/font&gt;" style="rounded=0;whiteSpace=wrap;html=1;fillColor=#e1d5e7;strokeColor=#9673a6;" parent="1" vertex="1">
          <mxGeometry x="340" y="570" width="190" height="60" as="geometry" />
        </mxCell>
        <mxCell id="m2AHcmCJdf_8LvcoW3n0-32" value="" style="endArrow=classic;html=1;rounded=0;exitX=1.056;exitY=0.749;exitDx=0;exitDy=0;exitPerimeter=0;" parent="1" source="m2AHcmCJdf_8LvcoW3n0-9" edge="1">
          <mxGeometry width="50" height="50" relative="1" as="geometry">
            <mxPoint x="-130" y="520" as="sourcePoint" />
            <mxPoint x="440" y="530" as="targetPoint" />
          </mxGeometry>
        </mxCell>
        <mxCell id="m2AHcmCJdf_8LvcoW3n0-33" value="" style="endArrow=classic;html=1;rounded=0;exitX=0.5;exitY=1;exitDx=0;exitDy=0;entryX=0.542;entryY=-0.017;entryDx=0;entryDy=0;entryPerimeter=0;" parent="1" source="m2AHcmCJdf_8LvcoW3n0-26" target="m2AHcmCJdf_8LvcoW3n0-31" edge="1">
          <mxGeometry width="50" height="50" relative="1" as="geometry">
            <mxPoint x="390" y="590" as="sourcePoint" />
            <mxPoint x="440" y="540" as="targetPoint" />
          </mxGeometry>
        </mxCell>
        <mxCell id="m2AHcmCJdf_8LvcoW3n0-34" value="&lt;font style=&quot;font-size: 14px;&quot;&gt;Signed Header&lt;/font&gt;" style="text;html=1;strokeColor=none;fillColor=none;align=center;verticalAlign=middle;whiteSpace=wrap;rounded=0;strokeWidth=5;" parent="1" vertex="1">
          <mxGeometry x="360.6" y="620" width="169.4" height="30" as="geometry" />
        </mxCell>
        <mxCell id="m2AHcmCJdf_8LvcoW3n0-35" value="" style="rounded=0;whiteSpace=wrap;html=1;" parent="1" vertex="1">
          <mxGeometry x="200" y="700" width="310" height="60" as="geometry" />
        </mxCell>
        <mxCell id="m2AHcmCJdf_8LvcoW3n0-36" value="Signed Header" style="rounded=0;whiteSpace=wrap;html=1;fillColor=#e1d5e7;strokeColor=#9673a6;" parent="1" vertex="1">
          <mxGeometry x="215" y="700" width="125" height="60" as="geometry" />
        </mxCell>
        <mxCell id="m2AHcmCJdf_8LvcoW3n0-37" value="Body" style="rounded=0;whiteSpace=wrap;html=1;fillColor=#d5e8d4;strokeColor=#82b366;" parent="1" vertex="1">
          <mxGeometry x="350" y="700" width="160" height="60" as="geometry" />
        </mxCell>
        <mxCell id="m2AHcmCJdf_8LvcoW3n0-38" value="&lt;font style=&quot;font-size: 14px;&quot;&gt;SOAP Request&lt;/font&gt;" style="text;html=1;strokeColor=none;fillColor=none;align=center;verticalAlign=middle;whiteSpace=wrap;rounded=0;strokeWidth=5;" parent="1" vertex="1">
          <mxGeometry x="270.3" y="760" width="169.4" height="30" as="geometry" />
        </mxCell>
        <mxCell id="m2AHcmCJdf_8LvcoW3n0-39" value="" style="endArrow=classic;html=1;rounded=0;entryX=0.063;entryY=-0.033;entryDx=0;entryDy=0;entryPerimeter=0;" parent="1" target="m2AHcmCJdf_8LvcoW3n0-37" edge="1">
          <mxGeometry width="50" height="50" relative="1" as="geometry">
            <mxPoint x="360" y="630" as="sourcePoint" />
            <mxPoint x="230" y="650" as="targetPoint" />
          </mxGeometry>
        </mxCell>
        <mxCell id="m2AHcmCJdf_8LvcoW3n0-40" value="Body(Request SCT)" style="rounded=0;whiteSpace=wrap;html=1;fillColor=#d5e8d4;strokeColor=#82b366;" parent="1" vertex="1">
          <mxGeometry x="140" y="615" width="130" height="60" as="geometry" />
        </mxCell>
        <mxCell id="m2AHcmCJdf_8LvcoW3n0-41" value="" style="endArrow=classic;html=1;rounded=0;entryX=0;entryY=1;entryDx=0;entryDy=0;" parent="1" edge="1">
          <mxGeometry width="50" height="50" relative="1" as="geometry">
            <mxPoint x="270.3" y="650" as="sourcePoint" />
            <mxPoint x="355.59999999999997" y="650" as="targetPoint" />
          </mxGeometry>
        </mxCell>
        <mxCell id="m2AHcmCJdf_8LvcoW3n0-42" value="&lt;font style=&quot;font-size: 16px;&quot;&gt;SOAP Request Header Signing&lt;/font&gt;" style="text;html=1;strokeColor=none;fillColor=none;align=center;verticalAlign=middle;whiteSpace=wrap;rounded=0;" parent="1" vertex="1">
          <mxGeometry x="220" y="110" width="160" height="30" as="geometry" />
        </mxCell>
        <mxCell id="m2AHcmCJdf_8LvcoW3n0-43" value="" style="rounded=0;whiteSpace=wrap;html=1;" parent="1" vertex="1">
          <mxGeometry x="740" y="170" width="310" height="60" as="geometry" />
        </mxCell>
        <mxCell id="m2AHcmCJdf_8LvcoW3n0-44" value="Signed Header" style="rounded=0;whiteSpace=wrap;html=1;fillColor=#e1d5e7;strokeColor=#9673a6;" parent="1" vertex="1">
          <mxGeometry x="755" y="170" width="125" height="60" as="geometry" />
        </mxCell>
        <mxCell id="m2AHcmCJdf_8LvcoW3n0-45" value="&lt;div&gt;Body&amp;nbsp;&lt;/div&gt;&lt;div&gt;(Request Service token)&lt;/div&gt;" style="rounded=0;whiteSpace=wrap;html=1;fillColor=#d5e8d4;strokeColor=#82b366;" parent="1" vertex="1">
          <mxGeometry x="890" y="170" width="160" height="60" as="geometry" />
        </mxCell>
        <mxCell id="m2AHcmCJdf_8LvcoW3n0-47" value="&lt;font style=&quot;font-size: 14px;&quot;&gt;Signature&lt;/font&gt;" style="rounded=0;whiteSpace=wrap;html=1;fillColor=#e1d5e7;strokeColor=#9673a6;" parent="1" vertex="1">
          <mxGeometry x="750" y="310" width="140" height="60" as="geometry" />
        </mxCell>
        <mxCell id="m2AHcmCJdf_8LvcoW3n0-50" value="" style="points=[[0.015,0.015,0],[0.25,0,0],[0.5,0,0],[0.75,0,0],[0.985,0.015,0],[1,0.22,0],[1,0.44,0],[1,0.67,0],[0.985,0.89,0],[0,0.22,0],[0,0.44,0],[0,0.67,0],[0.015,0.89,0],[0.25,0.91,0],[0.5,0.91,0],[0.785,0.955,0]];verticalLabelPosition=bottom;sketch=0;html=1;verticalAlign=top;aspect=fixed;align=center;pointerEvents=1;shape=mxgraph.cisco19.x509_certificate;fillColor=#005073;strokeColor=none;" parent="1" vertex="1">
          <mxGeometry x="950" y="305.3" width="90" height="85.5" as="geometry" />
        </mxCell>
        <mxCell id="m2AHcmCJdf_8LvcoW3n0-51" value="&lt;font style=&quot;font-size: 14px;&quot;&gt;Client Certificate&lt;/font&gt;" style="text;html=1;align=center;verticalAlign=middle;resizable=0;points=[];autosize=1;strokeColor=none;fillColor=none;" parent="1" vertex="1">
          <mxGeometry x="940" y="390.8" width="130" height="30" as="geometry" />
        </mxCell>
        <mxCell id="m2AHcmCJdf_8LvcoW3n0-52" value="AXPAQZ" style="rounded=0;whiteSpace=wrap;html=1;fillColor=#e1d5e7;strokeColor=#9673a6;" parent="1" vertex="1">
          <mxGeometry x="750" y="480" width="130" height="40" as="geometry" />
        </mxCell>
        <mxCell id="m2AHcmCJdf_8LvcoW3n0-54" value="" style="strokeWidth=2;html=1;shape=mxgraph.flowchart.document2;whiteSpace=wrap;size=0.25;fillColor=#e1d5e7;strokeColor=#9673a6;" parent="1" vertex="1">
          <mxGeometry x="955" y="470" width="100" height="60" as="geometry" />
        </mxCell>
        <mxCell id="m2AHcmCJdf_8LvcoW3n0-55" value="&lt;font style=&quot;font-size: 14px;&quot;&gt;Digest Value&lt;/font&gt;" style="text;html=1;align=center;verticalAlign=middle;resizable=0;points=[];autosize=1;strokeColor=none;fillColor=none;" parent="1" vertex="1">
          <mxGeometry x="765" y="520" width="100" height="30" as="geometry" />
        </mxCell>
        <mxCell id="m2AHcmCJdf_8LvcoW3n0-56" value="&lt;font style=&quot;font-size: 15px;&quot;&gt;Header Data&lt;/font&gt;" style="text;html=1;align=center;verticalAlign=middle;resizable=0;points=[];autosize=1;strokeColor=none;fillColor=none;" parent="1" vertex="1">
          <mxGeometry x="960" y="540" width="110" height="30" as="geometry" />
        </mxCell>
        <mxCell id="m2AHcmCJdf_8LvcoW3n0-57" value="" style="outlineConnect=0;dashed=0;verticalLabelPosition=bottom;verticalAlign=top;align=center;html=1;shape=mxgraph.aws3.data_encryption_key;fillColor=#7D7C7C;gradientColor=none;" parent="1" vertex="1">
          <mxGeometry x="1100" y="370" width="46.5" height="60" as="geometry" />
        </mxCell>
        <mxCell id="m2AHcmCJdf_8LvcoW3n0-58" value="" style="endArrow=classic;html=1;rounded=0;entryX=0.5;entryY=0;entryDx=0;entryDy=0;entryPerimeter=0;" parent="1" target="m2AHcmCJdf_8LvcoW3n0-57" edge="1">
          <mxGeometry width="50" height="50" relative="1" as="geometry">
            <mxPoint x="1040" y="340" as="sourcePoint" />
            <mxPoint x="1090" y="290" as="targetPoint" />
            <Array as="points">
              <mxPoint x="1123" y="340" />
            </Array>
          </mxGeometry>
        </mxCell>
        <mxCell id="m2AHcmCJdf_8LvcoW3n0-59" value="&lt;font style=&quot;font-size: 14px;&quot;&gt;Public Key&lt;/font&gt;" style="text;html=1;align=center;verticalAlign=middle;resizable=0;points=[];autosize=1;strokeColor=none;fillColor=none;" parent="1" vertex="1">
          <mxGeometry x="1045" y="318" width="90" height="30" as="geometry" />
        </mxCell>
        <mxCell id="m2AHcmCJdf_8LvcoW3n0-60" value="" style="endArrow=classic;html=1;rounded=0;exitX=1;exitY=0.5;exitDx=0;exitDy=0;exitPerimeter=0;" parent="1" source="m2AHcmCJdf_8LvcoW3n0-54" edge="1">
          <mxGeometry width="50" height="50" relative="1" as="geometry">
            <mxPoint x="1100" y="620" as="sourcePoint" />
            <mxPoint x="1130" y="500" as="targetPoint" />
          </mxGeometry>
        </mxCell>
        <mxCell id="m2AHcmCJdf_8LvcoW3n0-61" value="" style="endArrow=classic;html=1;rounded=0;entryX=0.94;entryY=0.06;entryDx=0;entryDy=0;entryPerimeter=0;" parent="1" target="m2AHcmCJdf_8LvcoW3n0-62" edge="1">
          <mxGeometry width="50" height="50" relative="1" as="geometry">
            <mxPoint x="1130" y="440" as="sourcePoint" />
            <mxPoint x="1130" y="610" as="targetPoint" />
          </mxGeometry>
        </mxCell>
        <mxCell id="m2AHcmCJdf_8LvcoW3n0-62" value="Digest Value" style="rounded=0;whiteSpace=wrap;html=1;fillColor=#e1d5e7;strokeColor=#9673a6;" parent="1" vertex="1">
          <mxGeometry x="1020" y="590" width="117" height="50" as="geometry" />
        </mxCell>
        <mxCell id="m2AHcmCJdf_8LvcoW3n0-63" value="" style="endArrow=classic;html=1;rounded=0;exitX=1;exitY=0.5;exitDx=0;exitDy=0;entryX=0.5;entryY=0;entryDx=0;entryDy=0;" parent="1" source="m2AHcmCJdf_8LvcoW3n0-52" edge="1">
          <mxGeometry width="50" height="50" relative="1" as="geometry">
            <mxPoint x="790" y="690" as="sourcePoint" />
            <mxPoint x="920" y="610" as="targetPoint" />
            <Array as="points">
              <mxPoint x="920" y="500" />
              <mxPoint x="920" y="550" />
            </Array>
          </mxGeometry>
        </mxCell>
        <mxCell id="m2AHcmCJdf_8LvcoW3n0-65" value="&lt;font style=&quot;font-size: 66px;&quot;&gt;=&lt;/font&gt;" style="text;html=1;strokeColor=none;fillColor=none;align=center;verticalAlign=middle;whiteSpace=wrap;rounded=0;" parent="1" vertex="1">
          <mxGeometry x="870" y="610" width="100" height="30" as="geometry" />
        </mxCell>
        <mxCell id="m2AHcmCJdf_8LvcoW3n0-66" value="" style="endArrow=classic;html=1;rounded=0;exitX=0.017;exitY=0.64;exitDx=0;exitDy=0;exitPerimeter=0;" parent="1" source="m2AHcmCJdf_8LvcoW3n0-62" edge="1">
          <mxGeometry width="50" height="50" relative="1" as="geometry">
            <mxPoint x="740" y="730" as="sourcePoint" />
            <mxPoint x="950" y="622" as="targetPoint" />
          </mxGeometry>
        </mxCell>
        <mxCell id="m2AHcmCJdf_8LvcoW3n0-67" value="" style="endArrow=classic;html=1;rounded=0;exitX=0.5;exitY=1;exitDx=0;exitDy=0;entryX=0.5;entryY=0;entryDx=0;entryDy=0;" parent="1" source="m2AHcmCJdf_8LvcoW3n0-44" target="m2AHcmCJdf_8LvcoW3n0-47" edge="1">
          <mxGeometry width="50" height="50" relative="1" as="geometry">
            <mxPoint x="710" y="280" as="sourcePoint" />
            <mxPoint x="760" y="230" as="targetPoint" />
          </mxGeometry>
        </mxCell>
        <mxCell id="m2AHcmCJdf_8LvcoW3n0-69" value="" style="endArrow=classic;html=1;rounded=0;entryX=0.5;entryY=0;entryDx=0;entryDy=0;entryPerimeter=0;exitX=0.75;exitY=1;exitDx=0;exitDy=0;" parent="1" source="m2AHcmCJdf_8LvcoW3n0-44" target="m2AHcmCJdf_8LvcoW3n0-50" edge="1">
          <mxGeometry width="50" height="50" relative="1" as="geometry">
            <mxPoint x="850" y="300" as="sourcePoint" />
            <mxPoint x="900" y="250" as="targetPoint" />
          </mxGeometry>
        </mxCell>
        <mxCell id="m2AHcmCJdf_8LvcoW3n0-70" value="" style="endArrow=classic;html=1;rounded=0;entryX=0.5;entryY=0;entryDx=0;entryDy=0;exitX=0.45;exitY=1.067;exitDx=0;exitDy=0;exitPerimeter=0;" parent="1" source="m2AHcmCJdf_8LvcoW3n0-47" target="m2AHcmCJdf_8LvcoW3n0-52" edge="1">
          <mxGeometry width="50" height="50" relative="1" as="geometry">
            <mxPoint x="610" y="440" as="sourcePoint" />
            <mxPoint x="660" y="390" as="targetPoint" />
          </mxGeometry>
        </mxCell>
        <mxCell id="m2AHcmCJdf_8LvcoW3n0-71" value="" style="endArrow=classic;html=1;rounded=0;entryX=0.44;entryY=-0.017;entryDx=0;entryDy=0;entryPerimeter=0;exitX=0.75;exitY=1;exitDx=0;exitDy=0;" parent="1" source="m2AHcmCJdf_8LvcoW3n0-47" target="m2AHcmCJdf_8LvcoW3n0-54" edge="1">
          <mxGeometry width="50" height="50" relative="1" as="geometry">
            <mxPoint x="620" y="520" as="sourcePoint" />
            <mxPoint x="670" y="470" as="targetPoint" />
          </mxGeometry>
        </mxCell>
        <mxCell id="m2AHcmCJdf_8LvcoW3n0-72" value="&lt;b&gt;Equal&lt;/b&gt;" style="text;html=1;strokeColor=none;fillColor=none;align=center;verticalAlign=middle;whiteSpace=wrap;rounded=0;" parent="1" vertex="1">
          <mxGeometry x="895" y="645" width="60" height="30" as="geometry" />
        </mxCell>
        <mxCell id="m2AHcmCJdf_8LvcoW3n0-73" value="" style="endArrow=none;html=1;rounded=0;" parent="1" edge="1">
          <mxGeometry width="50" height="50" relative="1" as="geometry">
            <mxPoint x="640" y="1280" as="sourcePoint" />
            <mxPoint x="640" y="-40" as="targetPoint" />
          </mxGeometry>
        </mxCell>
        <mxCell id="m2AHcmCJdf_8LvcoW3n0-74" value="" style="endArrow=classic;html=1;rounded=0;entryX=0;entryY=0.5;entryDx=0;entryDy=0;" parent="1" target="m2AHcmCJdf_8LvcoW3n0-43" edge="1">
          <mxGeometry width="50" height="50" relative="1" as="geometry">
            <mxPoint x="500" y="710" as="sourcePoint" />
            <mxPoint x="720" y="180" as="targetPoint" />
            <Array as="points">
              <mxPoint x="680" y="700" />
              <mxPoint x="680" y="200" />
            </Array>
          </mxGeometry>
        </mxCell>
        <mxCell id="m2AHcmCJdf_8LvcoW3n0-75" value="&lt;font style=&quot;font-size: 16px;&quot;&gt;SOAP Request Header Verification&lt;/font&gt;" style="text;html=1;strokeColor=none;fillColor=none;align=center;verticalAlign=middle;whiteSpace=wrap;rounded=0;" parent="1" vertex="1">
          <mxGeometry x="810" y="110" width="160" height="30" as="geometry" />
        </mxCell>
        <mxCell id="m2AHcmCJdf_8LvcoW3n0-76" value="&lt;div style=&quot;font-size: 14px;&quot;&gt;&lt;font style=&quot;font-size: 14px;&quot;&gt;Transport Message Credential +&amp;nbsp; Certificate Auth&lt;br&gt;&lt;/font&gt;&lt;/div&gt;&lt;div style=&quot;font-size: 14px;&quot;&gt;&lt;font style=&quot;font-size: 14px;&quot;&gt;Asymmetric Key to Validate Client&lt;/font&gt;&lt;/div&gt;&lt;div style=&quot;font-size: 14px;&quot;&gt;&lt;font style=&quot;font-size: 14px;&quot;&gt;Session Token to transfer data between client and Server&lt;font style=&quot;font-size: 14px;&quot;&gt;&lt;br&gt;&lt;/font&gt;&lt;/font&gt;&lt;/div&gt;" style="rounded=0;whiteSpace=wrap;html=1;" parent="1" vertex="1">
          <mxGeometry x="330" y="10" width="680" height="60" as="geometry" />
        </mxCell>
        <mxCell id="m2AHcmCJdf_8LvcoW3n0-77" value="Client" style="ellipse;whiteSpace=wrap;html=1;aspect=fixed;" parent="1" vertex="1">
          <mxGeometry x="315" width="80" height="80" as="geometry" />
        </mxCell>
        <mxCell id="m2AHcmCJdf_8LvcoW3n0-78" value="Server" style="ellipse;whiteSpace=wrap;html=1;aspect=fixed;" parent="1" vertex="1">
          <mxGeometry x="910" width="80" height="80" as="geometry" />
        </mxCell>
        <mxCell id="m2AHcmCJdf_8LvcoW3n0-79" value="&lt;div&gt;Body&amp;nbsp;&lt;/div&gt;&lt;div&gt;(Request Service token)&lt;/div&gt;" style="rounded=0;whiteSpace=wrap;html=1;fillColor=#d5e8d4;strokeColor=#82b366;" parent="1" vertex="1">
          <mxGeometry x="840" y="745" width="160" height="60" as="geometry" />
        </mxCell>
        <mxCell id="m2AHcmCJdf_8LvcoW3n0-80" value="Generate Random Session Token" style="rounded=0;whiteSpace=wrap;html=1;fillColor=#d5e8d4;strokeColor=#82b366;" parent="1" vertex="1">
          <mxGeometry x="690" y="880" width="160" height="52" as="geometry" />
        </mxCell>
        <mxCell id="m2AHcmCJdf_8LvcoW3n0-83" value="Client/Requester Entropy" style="text;html=1;strokeColor=none;fillColor=none;align=center;verticalAlign=middle;whiteSpace=wrap;rounded=0;" parent="1" vertex="1">
          <mxGeometry x="930" y="880" width="104" height="30" as="geometry" />
        </mxCell>
        <mxCell id="m2AHcmCJdf_8LvcoW3n0-86" value="&lt;font style=&quot;font-size: 25px;&quot;&gt;+&lt;/font&gt;" style="text;html=1;strokeColor=none;fillColor=none;align=center;verticalAlign=middle;whiteSpace=wrap;rounded=0;" parent="1" vertex="1">
          <mxGeometry x="1020" y="915" width="60" height="30" as="geometry" />
        </mxCell>
        <mxCell id="m2AHcmCJdf_8LvcoW3n0-92" value="" style="verticalLabelPosition=bottom;html=1;verticalAlign=top;align=center;strokeColor=none;fillColor=#00BEF2;shape=mxgraph.azure.access_control;" parent="1" vertex="1">
          <mxGeometry x="1085" y="915" width="50" height="50" as="geometry" />
        </mxCell>
        <mxCell id="m2AHcmCJdf_8LvcoW3n0-93" value="Server/Issuer Entropy (Random)" style="text;html=1;strokeColor=none;fillColor=none;align=center;verticalAlign=middle;whiteSpace=wrap;rounded=0;" parent="1" vertex="1">
          <mxGeometry x="1055" y="880" width="104" height="30" as="geometry" />
        </mxCell>
        <mxCell id="m2AHcmCJdf_8LvcoW3n0-94" value="" style="endArrow=none;dashed=1;html=1;dashPattern=1 3;strokeWidth=2;rounded=0;entryX=0.5;entryY=1;entryDx=0;entryDy=0;entryPerimeter=0;exitX=0.613;exitY=1;exitDx=0;exitDy=0;exitPerimeter=0;" parent="1" target="m2AHcmCJdf_8LvcoW3n0-92" edge="1">
          <mxGeometry width="50" height="50" relative="1" as="geometry">
            <mxPoint x="989.0030000000002" y="965" as="sourcePoint" />
            <mxPoint x="1090" y="970" as="targetPoint" />
          </mxGeometry>
        </mxCell>
        <mxCell id="m2AHcmCJdf_8LvcoW3n0-98" value="Hash(Client Requested Hashing)" style="text;html=1;strokeColor=none;fillColor=none;align=center;verticalAlign=middle;whiteSpace=wrap;rounded=0;" parent="1" vertex="1">
          <mxGeometry x="1146.5" y="940" width="125" height="30" as="geometry" />
        </mxCell>
        <mxCell id="m2AHcmCJdf_8LvcoW3n0-99" value="" style="endArrow=classic;html=1;rounded=0;exitX=0.388;exitY=1.017;exitDx=0;exitDy=0;exitPerimeter=0;entryX=0.5;entryY=0;entryDx=0;entryDy=0;" parent="1" source="m2AHcmCJdf_8LvcoW3n0-79" target="m2AHcmCJdf_8LvcoW3n0-80" edge="1">
          <mxGeometry width="50" height="50" relative="1" as="geometry">
            <mxPoint x="470" y="950" as="sourcePoint" />
            <mxPoint x="520" y="900" as="targetPoint" />
          </mxGeometry>
        </mxCell>
        <mxCell id="m2AHcmCJdf_8LvcoW3n0-100" value="" style="endArrow=classic;html=1;rounded=0;exitX=0.75;exitY=1;exitDx=0;exitDy=0;entryX=0.5;entryY=0;entryDx=0;entryDy=0;" parent="1" source="m2AHcmCJdf_8LvcoW3n0-79" target="m2AHcmCJdf_8LvcoW3n0-83" edge="1">
          <mxGeometry width="50" height="50" relative="1" as="geometry">
            <mxPoint x="870" y="970" as="sourcePoint" />
            <mxPoint x="920" y="920" as="targetPoint" />
          </mxGeometry>
        </mxCell>
        <mxCell id="m2AHcmCJdf_8LvcoW3n0-101" value="" style="rounded=0;whiteSpace=wrap;html=1;" parent="1" vertex="1">
          <mxGeometry x="830" y="1150" width="320" height="60" as="geometry" />
        </mxCell>
        <mxCell id="m2AHcmCJdf_8LvcoW3n0-103" value="Session Token " style="rounded=0;whiteSpace=wrap;html=1;fillColor=#d5e8d4;strokeColor=#82b366;" parent="1" vertex="1">
          <mxGeometry x="869" y="1154" width="160" height="52" as="geometry" />
        </mxCell>
        <mxCell id="m2AHcmCJdf_8LvcoW3n0-104" value="" style="verticalLabelPosition=bottom;html=1;verticalAlign=top;align=center;strokeColor=none;fillColor=#00BEF2;shape=mxgraph.azure.access_control;" parent="1" vertex="1">
          <mxGeometry x="1080" y="1156" width="50" height="50" as="geometry" />
        </mxCell>
        <mxCell id="m2AHcmCJdf_8LvcoW3n0-109" value="" style="endArrow=classic;html=1;rounded=0;exitX=0;exitY=0.5;exitDx=0;exitDy=0;" parent="1" source="m2AHcmCJdf_8LvcoW3n0-101" edge="1">
          <mxGeometry width="50" height="50" relative="1" as="geometry">
            <mxPoint x="600" y="1120" as="sourcePoint" />
            <mxPoint x="590" y="1180" as="targetPoint" />
          </mxGeometry>
        </mxCell>
        <mxCell id="m2AHcmCJdf_8LvcoW3n0-113" value="&lt;div&gt;SOAP Response&amp;nbsp;&lt;/div&gt;&lt;div&gt;(RST Response)&lt;/div&gt;" style="edgeLabel;html=1;align=center;verticalAlign=middle;resizable=0;points=[];" parent="m2AHcmCJdf_8LvcoW3n0-109" vertex="1" connectable="0">
          <mxGeometry x="-0.075" relative="1" as="geometry">
            <mxPoint as="offset" />
          </mxGeometry>
        </mxCell>
        <mxCell id="m2AHcmCJdf_8LvcoW3n0-111" value="Client/Requester Entropy" style="text;html=1;strokeColor=none;fillColor=none;align=center;verticalAlign=middle;whiteSpace=wrap;rounded=0;" parent="1" vertex="1">
          <mxGeometry x="23.5" y="590" width="104" height="30" as="geometry" />
        </mxCell>
        <mxCell id="m2AHcmCJdf_8LvcoW3n0-112" value="" style="endArrow=classic;html=1;rounded=0;entryX=0;entryY=0.5;entryDx=0;entryDy=0;exitX=0.935;exitY=0.54;exitDx=0;exitDy=0;exitPerimeter=0;" parent="1" target="m2AHcmCJdf_8LvcoW3n0-40" edge="1">
          <mxGeometry width="50" height="50" relative="1" as="geometry">
            <mxPoint x="88.9849999999999" y="647" as="sourcePoint" />
            <mxPoint x="130" y="600" as="targetPoint" />
          </mxGeometry>
        </mxCell>
        <mxCell id="m2AHcmCJdf_8LvcoW3n0-115" value="" style="rounded=0;whiteSpace=wrap;html=1;" parent="1" vertex="1">
          <mxGeometry x="270" y="1150" width="310" height="60" as="geometry" />
        </mxCell>
        <mxCell id="m2AHcmCJdf_8LvcoW3n0-116" value="Session Token" style="rounded=0;whiteSpace=wrap;html=1;fillColor=#d5e8d4;strokeColor=#82b366;" parent="1" vertex="1">
          <mxGeometry x="290" y="1153" width="160" height="52" as="geometry" />
        </mxCell>
        <mxCell id="m2AHcmCJdf_8LvcoW3n0-117" value="" style="verticalLabelPosition=bottom;html=1;verticalAlign=top;align=center;strokeColor=none;fillColor=#00BEF2;shape=mxgraph.azure.access_control;" parent="1" vertex="1">
          <mxGeometry x="260" y="1020" width="50" height="50" as="geometry" />
        </mxCell>
        <mxCell id="m2AHcmCJdf_8LvcoW3n0-120" value="" style="verticalLabelPosition=bottom;html=1;verticalAlign=top;align=center;strokeColor=none;fillColor=#00BEF2;shape=mxgraph.azure.access_control;" parent="1" vertex="1">
          <mxGeometry x="460" y="1154" width="50" height="50" as="geometry" />
        </mxCell>
        <mxCell id="m2AHcmCJdf_8LvcoW3n0-121" value="" style="endArrow=classic;html=1;rounded=0;exitX=0.677;exitY=1.02;exitDx=0;exitDy=0;exitPerimeter=0;entryX=0;entryY=0.75;entryDx=0;entryDy=0;" parent="1" target="m2AHcmCJdf_8LvcoW3n0-122" edge="1">
          <mxGeometry width="50" height="50" relative="1" as="geometry">
            <mxPoint x="80.98700000000008" y="671" as="sourcePoint" />
            <mxPoint x="80" y="1050" as="targetPoint" />
            <Array as="points">
              <mxPoint x="81" y="1053" />
            </Array>
          </mxGeometry>
        </mxCell>
        <mxCell id="m2AHcmCJdf_8LvcoW3n0-122" value="&lt;font style=&quot;font-size: 25px;&quot;&gt;+&lt;/font&gt;" style="text;html=1;strokeColor=none;fillColor=none;align=center;verticalAlign=middle;whiteSpace=wrap;rounded=0;" parent="1" vertex="1">
          <mxGeometry x="200" y="1030" width="60" height="30" as="geometry" />
        </mxCell>
        <mxCell id="m2AHcmCJdf_8LvcoW3n0-123" value="" style="endArrow=classic;html=1;rounded=0;exitX=0.96;exitY=0.46;exitDx=0;exitDy=0;exitPerimeter=0;" parent="1" source="m2AHcmCJdf_8LvcoW3n0-117" edge="1">
          <mxGeometry width="50" height="50" relative="1" as="geometry">
            <mxPoint x="330" y="1040" as="sourcePoint" />
            <mxPoint x="420" y="1040" as="targetPoint" />
          </mxGeometry>
        </mxCell>
        <mxCell id="m2AHcmCJdf_8LvcoW3n0-124" value="Hash" style="text;html=1;align=center;verticalAlign=middle;resizable=0;points=[];autosize=1;strokeColor=none;fillColor=none;" parent="1" vertex="1">
          <mxGeometry x="335" y="1018" width="50" height="30" as="geometry" />
        </mxCell>
        <mxCell id="m2AHcmCJdf_8LvcoW3n0-128" value="" style="endArrow=classic;html=1;rounded=0;exitX=0.44;exitY=0.34;exitDx=0;exitDy=0;exitPerimeter=0;entryX=0.755;entryY=0.79;entryDx=0;entryDy=0;entryPerimeter=0;" parent="1" source="m2AHcmCJdf_8LvcoW3n0-120" target="m2AHcmCJdf_8LvcoW3n0-117" edge="1">
          <mxGeometry width="50" height="50" relative="1" as="geometry">
            <mxPoint x="420" y="1150" as="sourcePoint" />
            <mxPoint x="470" y="1100" as="targetPoint" />
          </mxGeometry>
        </mxCell>
        <mxCell id="Fmn94j2n1OJGEEsKj20w-1" value="&lt;font style=&quot;font-size: 23px;&quot;&gt;=&lt;/font&gt;" style="text;html=1;strokeColor=none;fillColor=none;align=center;verticalAlign=middle;whiteSpace=wrap;rounded=0;" vertex="1" parent="1">
          <mxGeometry x="1170" y="915" width="60" height="30" as="geometry" />
        </mxCell>
        <mxCell id="Fmn94j2n1OJGEEsKj20w-2" value="" style="sketch=0;aspect=fixed;pointerEvents=1;shadow=0;dashed=0;html=1;strokeColor=none;labelPosition=center;verticalLabelPosition=bottom;verticalAlign=top;align=center;fillColor=#00188D;shape=mxgraph.mscae.enterprise.key_permissions" vertex="1" parent="1">
          <mxGeometry x="1262" y="910" width="26" height="50" as="geometry" />
        </mxCell>
        <mxCell id="Fmn94j2n1OJGEEsKj20w-3" value="&lt;font style=&quot;font-size: 14px;&quot;&gt;Symmetric Key&lt;/font&gt;" style="text;html=1;strokeColor=none;fillColor=none;align=center;verticalAlign=middle;whiteSpace=wrap;rounded=0;" vertex="1" parent="1">
          <mxGeometry x="1245" y="870" width="60" height="30" as="geometry" />
        </mxCell>
        <mxCell id="Fmn94j2n1OJGEEsKj20w-4" value="" style="rounded=0;whiteSpace=wrap;html=1;" vertex="1" parent="1">
          <mxGeometry x="774" y="995" width="290" height="75" as="geometry" />
        </mxCell>
        <mxCell id="Fmn94j2n1OJGEEsKj20w-5" value="" style="rounded=0;whiteSpace=wrap;html=1;" vertex="1" parent="1">
          <mxGeometry x="799" y="1003" width="100" height="60" as="geometry" />
        </mxCell>
        <mxCell id="Fmn94j2n1OJGEEsKj20w-6" value="" style="rounded=0;whiteSpace=wrap;html=1;" vertex="1" parent="1">
          <mxGeometry x="909" y="1003" width="120" height="60" as="geometry" />
        </mxCell>
        <mxCell id="Fmn94j2n1OJGEEsKj20w-7" value="" style="sketch=0;aspect=fixed;pointerEvents=1;shadow=0;dashed=0;html=1;strokeColor=none;labelPosition=center;verticalLabelPosition=bottom;verticalAlign=top;align=center;fillColor=#00188D;shape=mxgraph.mscae.enterprise.key_permissions" vertex="1" parent="1">
          <mxGeometry x="987" y="1007" width="26" height="50" as="geometry" />
        </mxCell>
        <mxCell id="Fmn94j2n1OJGEEsKj20w-8" value="Session Token" style="rounded=0;whiteSpace=wrap;html=1;fillColor=#f8cecc;strokeColor=#b85450;" vertex="1" parent="1">
          <mxGeometry x="804" y="1007" width="90" height="52" as="geometry" />
        </mxCell>
        <mxCell id="Fmn94j2n1OJGEEsKj20w-9" value="Symmetric Key" style="text;html=1;strokeColor=none;fillColor=none;align=center;verticalAlign=middle;whiteSpace=wrap;rounded=0;" vertex="1" parent="1">
          <mxGeometry x="919" y="1030" width="60" height="30" as="geometry" />
        </mxCell>
        <mxCell id="Fmn94j2n1OJGEEsKj20w-10" value="" style="endArrow=classic;html=1;rounded=0;exitX=0.5;exitY=1;exitDx=0;exitDy=0;exitPerimeter=0;entryX=1;entryY=0.5;entryDx=0;entryDy=0;" edge="1" parent="1" source="Fmn94j2n1OJGEEsKj20w-2" target="Fmn94j2n1OJGEEsKj20w-6">
          <mxGeometry width="50" height="50" relative="1" as="geometry">
            <mxPoint x="1110" y="1110" as="sourcePoint" />
            <mxPoint x="1160" y="1060" as="targetPoint" />
            <Array as="points">
              <mxPoint x="1275" y="1033" />
            </Array>
          </mxGeometry>
        </mxCell>
        <mxCell id="Fmn94j2n1OJGEEsKj20w-11" value="" style="endArrow=classic;html=1;rounded=0;entryX=0.5;entryY=0;entryDx=0;entryDy=0;exitX=0.5;exitY=1;exitDx=0;exitDy=0;" edge="1" parent="1" source="m2AHcmCJdf_8LvcoW3n0-80" target="Fmn94j2n1OJGEEsKj20w-8">
          <mxGeometry width="50" height="50" relative="1" as="geometry">
            <mxPoint x="680" y="990" as="sourcePoint" />
            <mxPoint x="730" y="940" as="targetPoint" />
          </mxGeometry>
        </mxCell>
        <mxCell id="Fmn94j2n1OJGEEsKj20w-12" value="&lt;b&gt;Server Cache&lt;/b&gt;" style="text;html=1;strokeColor=none;fillColor=none;align=center;verticalAlign=middle;whiteSpace=wrap;rounded=0;" vertex="1" parent="1">
          <mxGeometry x="889" y="973" width="91" height="30" as="geometry" />
        </mxCell>
        <mxCell id="Fmn94j2n1OJGEEsKj20w-13" value="" style="endArrow=classic;html=1;rounded=0;entryX=0.56;entryY=0.14;entryDx=0;entryDy=0;entryPerimeter=0;" edge="1" parent="1" target="m2AHcmCJdf_8LvcoW3n0-104">
          <mxGeometry width="50" height="50" relative="1" as="geometry">
            <mxPoint x="1110" y="970" as="sourcePoint" />
            <mxPoint x="1200" y="1060" as="targetPoint" />
          </mxGeometry>
        </mxCell>
        <mxCell id="Fmn94j2n1OJGEEsKj20w-14" value="" style="endArrow=classic;html=1;rounded=0;entryX=0.5;entryY=0;entryDx=0;entryDy=0;exitX=0.61;exitY=0.95;exitDx=0;exitDy=0;exitPerimeter=0;" edge="1" parent="1" source="Fmn94j2n1OJGEEsKj20w-5" target="m2AHcmCJdf_8LvcoW3n0-103">
          <mxGeometry width="50" height="50" relative="1" as="geometry">
            <mxPoint x="680" y="1160" as="sourcePoint" />
            <mxPoint x="730" y="1110" as="targetPoint" />
          </mxGeometry>
        </mxCell>
        <mxCell id="Fmn94j2n1OJGEEsKj20w-15" value="" style="sketch=0;aspect=fixed;pointerEvents=1;shadow=0;dashed=0;html=1;strokeColor=none;labelPosition=center;verticalLabelPosition=bottom;verticalAlign=top;align=center;fillColor=#00188D;shape=mxgraph.mscae.enterprise.key_permissions" vertex="1" parent="1">
          <mxGeometry x="434" y="1018" width="26" height="50" as="geometry" />
        </mxCell>
        <mxCell id="Fmn94j2n1OJGEEsKj20w-16" value="&lt;font style=&quot;font-size: 14px;&quot;&gt;Symmetric Key&lt;/font&gt;" style="text;html=1;strokeColor=none;fillColor=none;align=center;verticalAlign=middle;whiteSpace=wrap;rounded=0;" vertex="1" parent="1">
          <mxGeometry x="415.29999999999995" y="980" width="60" height="30" as="geometry" />
        </mxCell>
        <mxCell id="Fmn94j2n1OJGEEsKj20w-17" value="" style="rounded=0;whiteSpace=wrap;html=1;" vertex="1" parent="1">
          <mxGeometry x="205" y="870" width="290" height="75" as="geometry" />
        </mxCell>
        <mxCell id="Fmn94j2n1OJGEEsKj20w-18" value="Session Token" style="rounded=0;whiteSpace=wrap;html=1;fillColor=#f8cecc;strokeColor=#b85450;" vertex="1" parent="1">
          <mxGeometry x="245" y="881.5" width="90" height="52" as="geometry" />
        </mxCell>
        <mxCell id="Fmn94j2n1OJGEEsKj20w-19" value="" style="sketch=0;aspect=fixed;pointerEvents=1;shadow=0;dashed=0;html=1;strokeColor=none;labelPosition=center;verticalLabelPosition=bottom;verticalAlign=top;align=center;fillColor=#00188D;shape=mxgraph.mscae.enterprise.key_permissions" vertex="1" parent="1">
          <mxGeometry x="408" y="883.5" width="26" height="50" as="geometry" />
        </mxCell>
        <mxCell id="Fmn94j2n1OJGEEsKj20w-20" value="" style="endArrow=classic;html=1;rounded=0;exitX=0.5;exitY=0;exitDx=0;exitDy=0;entryX=0.808;entryY=0.87;entryDx=0;entryDy=0;entryPerimeter=0;" edge="1" parent="1" source="Fmn94j2n1OJGEEsKj20w-16" target="Fmn94j2n1OJGEEsKj20w-19">
          <mxGeometry width="50" height="50" relative="1" as="geometry">
            <mxPoint x="380" y="1020" as="sourcePoint" />
            <mxPoint x="430" y="970" as="targetPoint" />
          </mxGeometry>
        </mxCell>
        <mxCell id="Fmn94j2n1OJGEEsKj20w-21" value="" style="endArrow=classic;html=1;rounded=0;entryX=0.5;entryY=1;entryDx=0;entryDy=0;" edge="1" parent="1" target="Fmn94j2n1OJGEEsKj20w-18">
          <mxGeometry width="50" height="50" relative="1" as="geometry">
            <mxPoint x="340" y="1150" as="sourcePoint" />
            <mxPoint x="390" y="1100" as="targetPoint" />
          </mxGeometry>
        </mxCell>
        <mxCell id="Fmn94j2n1OJGEEsKj20w-22" value="&lt;b&gt;Client Cache&lt;/b&gt;" style="text;html=1;strokeColor=none;fillColor=none;align=center;verticalAlign=middle;whiteSpace=wrap;rounded=0;" vertex="1" parent="1">
          <mxGeometry x="304.5" y="840" width="91" height="30" as="geometry" />
        </mxCell>
        <mxCell id="Fmn94j2n1OJGEEsKj20w-23" value="" style="image;aspect=fixed;perimeter=ellipsePerimeter;html=1;align=center;shadow=0;dashed=0;spacingTop=3;image=img/lib/active_directory/key.svg;" vertex="1" parent="1">
          <mxGeometry x="590" y="670" width="50" height="37" as="geometry" />
        </mxCell>
        <mxCell id="Fmn94j2n1OJGEEsKj20w-24" value="" style="sketch=0;pointerEvents=1;shadow=0;dashed=0;html=1;strokeColor=none;labelPosition=center;verticalLabelPosition=bottom;verticalAlign=top;outlineConnect=0;align=center;shape=mxgraph.office.security.key_permissions;fillColor=#7FBA42;" vertex="1" parent="1">
          <mxGeometry x="70" y="620" width="25" height="53" as="geometry" />
        </mxCell>
        <mxCell id="Fmn94j2n1OJGEEsKj20w-25" value="" style="sketch=0;pointerEvents=1;shadow=0;dashed=0;html=1;strokeColor=none;labelPosition=center;verticalLabelPosition=bottom;verticalAlign=top;outlineConnect=0;align=center;shape=mxgraph.office.security.key_permissions;fillColor=#7FBA42;" vertex="1" parent="1">
          <mxGeometry x="990" y="910" width="25" height="53" as="geometry" />
        </mxCell>
      </root>
    </mxGraphModel>
  </diagram>
</mxfile>
